# xmcd CD database file
#
# Track frame offsets:
#	150
#	23186
#	46278
#	69130
#	92123
#	115121
#	138220
#	161240
#	184237
#	207236
#	230983
#	253991
#
# Disc length: 3707 seconds
#
# Revision: 0
# Processed by: cddbd v1.5.2PL0 Copyright (c) Steve Scherf et al.
# Submitted via: CDex 1.51
#
DISCID=ab0e790c
DTITLE=Niall - Reiki River
DYEAR=2008
DGENRE=New Age
TTITLE0=Reiki River (the journey begins)
TTITLE1=Amber Breeze
TTITLE2=Secret Garden
TTITLE3=Misty Reflections
TTITLE4=Willow Pool
TTITLE5=Floating Leaves
TTITLE6=Water Sprites
TTITLE7=Blue Haze
TTITLE8=Drops of Peace
TTITLE9=Water Meadows
TTITLE10=The Day Awakes
TTITLE11=Reiki River (the journey ends)
EXTD=YEAR: 2008
EXTT0=
EXTT1=
EXTT2=
EXTT3=
EXTT4=
EXTT5=
EXTT6=
EXTT7=
EXTT8=
EXTT9=
EXTT10=
EXTT11=
PLAYORDER=
